<?xml version="1.0" encoding="UTF-8" standalone="no"?>
<svg
   xmlns:dc="http://purl.org/dc/elements/1.1/"
   xmlns:cc="http://creativecommons.org/ns#"
   xmlns:rdf="http://www.w3.org/1999/02/22-rdf-syntax-ns#"
   xmlns:svg="http://www.w3.org/2000/svg"
   xmlns="http://www.w3.org/2000/svg"
   xmlns:sodipodi="http://sodipodi.sourceforge.net/DTD/sodipodi-0.dtd"
   xmlns:inkscape="http://www.inkscape.org/namespaces/inkscape"
   version="1.1"
   x="0px"
   y="0px"
   viewBox="0 0 380.32962 600.67523"
   enable-background="new 0 0 100 100"
   xml:space="preserve"
   id="svg10"
   sodipodi:docname="logo.svg"
   width="380.32965"
   height="600.67523"
   inkscape:version="0.92.0 r15299"
   inkscape:export-filename="C:\Users\eric\Dropbox\Software\gittip\logo.png"
   inkscape:export-xdpi="96"
   inkscape:export-ydpi="96"><metadata
     id="metadata16"><rdf:RDF><cc:Work
         rdf:about=""><dc:format>image/svg+xml</dc:format><dc:type
           rdf:resource="http://purl.org/dc/dcmitype/StillImage" /><dc:title></dc:title></cc:Work></rdf:RDF></metadata><defs
     id="defs14" /><sodipodi:namedview
     pagecolor="#ffffff"
     bordercolor="#666666"
     borderopacity="1"
     objecttolerance="10"
     gridtolerance="10"
     guidetolerance="10"
     inkscape:pageopacity="0"
     inkscape:pageshadow="2"
     inkscape:window-width="3840"
     inkscape:window-height="2035"
     id="namedview12"
     showgrid="false"
     fit-margin-top="0"
     fit-margin-left="0"
     fit-margin-right="0"
     fit-margin-bottom="0"
     showguides="true"
     inkscape:guide-bbox="true"
     inkscape:zoom="2.712963"
     inkscape:cx="197.60611"
     inkscape:cy="300.80545"
     inkscape:window-x="3347"
     inkscape:window-y="-13"
     inkscape:window-maximized="1"
     inkscape:current-layer="layer2"><sodipodi:guide
       position="124.46722,376.3206"
       orientation="1,0"
       id="guide4534"
       inkscape:locked="false" /></sodipodi:namedview><g
     inkscape:groupmode="layer"
     id="layer1"
     inkscape:label="Bulb 1"
     transform="translate(26.606113,42.020477)" /><g
     inkscape:groupmode="layer"
     id="layer2"
     inkscape:label="Bulb"
     style="display:inline"
     transform="translate(-4.2568106,48.034829)"><path
       style="fill:none;fill-opacity:1;stroke:#000000;stroke-width:21.56310463;stroke-linecap:round;stroke-linejoin:miter;stroke-miterlimit:4;stroke-dasharray:none;stroke-opacity:1"
       d="M 15.092521,390.96281 C 66.27834,253.12271 5.3629243,165.85779 37.121985,80.332694 68.881046,-5.1923919 93.303547,-73.962087 250.03329,-15.761751 406.76302,42.438585 381.79513,111.00573 350.03606,196.53083 318.277,282.05592 214.8271,308.2851 163.64128,446.1252"
       id="path4530"
       inkscape:connector-curvature="0"
       sodipodi:nodetypes="czzsc" /><path
       style="fill:none;stroke:#949494;stroke-width:14.3754034;stroke-linecap:round;stroke-linejoin:miter;stroke-miterlimit:4;stroke-dasharray:none;stroke-opacity:1"
       d="m 20.05538,448.04194 103.12483,38.29459"
       id="path4836"
       inkscape:connector-curvature="0"
       sodipodi:nodetypes="cc" /><path
       style="fill:none;stroke:#949494;stroke-width:14.3754034;stroke-linecap:round;stroke-linejoin:miter;stroke-miterlimit:4;stroke-dasharray:none;stroke-opacity:1"
       d="m 19.960078,489.57177 76.186558,28.29127"
       id="path4842"
       inkscape:connector-curvature="0" /><path
       style="fill:none;stroke:#949494;stroke-width:14.3754034;stroke-linecap:round;stroke-linejoin:miter;stroke-miterlimit:4;stroke-dasharray:none;stroke-opacity:1"
       d="M 29.571747,534.22001 59.723388,545.4166"
       id="path4844"
       inkscape:connector-curvature="0" /><path
       style="display:inline;fill:#f05033;fill-opacity:1;stroke:none;stroke-width:0.62784469;stroke-linecap:butt;stroke-linejoin:miter;stroke-miterlimit:4;stroke-dasharray:none;stroke-opacity:1"
       d="m 144.71418,326.00772 0.004,-68.88024 c 11.94277,-4.90131 20.36346,-16.61561 20.36583,-30.32911 0.008,-4.49513 -0.89885,-8.7578 -2.53068,-12.65548 l 83.09587,-83.03866 c 3.89662,1.63445 8.17905,2.53647 12.65241,2.54065 18.10859,0.008 32.78627,-14.66047 32.80531,-32.78283 0.009,-18.098999 -14.66798,-32.78593 -32.77355,-32.79608 -18.12242,0.0054 -32.80012,14.674275 -32.80535,32.78282 0.004,3.67327 0.63037,7.21308 1.74184,10.51235 l -82.33406,82.27767 0.0188,-62.55758 c 11.84632,-4.93392 20.17314,-16.62358 20.18439,-30.25049 9e-4,-18.125353 -14.66541,-32.801736 -32.78678,-32.809262 -18.11447,-0.0011 -32.79381,14.668028 -32.79739,32.774922 -0.0129,12.974 7.53155,24.14194 18.44288,29.46394 l -0.0189,67.07115 c -10.9176,5.3119 -18.458626,16.4783 -18.46568,29.44603 -0.0054,12.88872 7.43117,23.99737 18.24762,29.35817 l -0.0375,69.74877 z"
       id="path4883"
       inkscape:connector-curvature="0"
       sodipodi:nodetypes="ccccccccccccccccccccc" /></g></svg>